# xmcd
#
# Track frame offsets:
#	150
#	15199
#	32981
#	58361
#	77613
#	98992
#	120391
#	137646
#	155734
#	175538
#	194684
#	205311
#	227705
#
# Disc length: 3277 seconds
#
# Revision: 1
# Processed by: cddbd v1.5.1PL0 Copyright (c) Steve Scherf et al.
# Submitted via: CDex 1.50Beta5
#
DISCID=ab0ccb0d
DTITLE=タイマーズ - COVERS!
DYEAR=2003
DGENRE=Rock
TTITLE0=タイマーズ/デイ・ドリーム・ビリーバー〜DAY DREAM BELIEVER〜
TTITLE1=クレイジーケンバンド/ルパン三世のテーマ(Vocal Version)/THEME FROM LUPIN THE 3RD(
TTITLE2=上々颱風/Let it be
TTITLE3=井上陽水/花の首飾り
TTITLE4=オルケスタ・デ・ラ・ルス/Salsa〜私はピアノ〜
TTITLE5=ショースカ/ハチのムサシは死んだのさ
TTITLE6=腐乱シュタイナー/ちょこっとLOVE
TTITLE7=原田知世/Sunny
TTITLE8=DATASPEAKER/Bicycle Race feat.永積タカシ(from SUPER BUTTER DOG)
TTITLE9=dolls/真夏の出来事
TTITLE10=ア・カッペラーズ/大都会
TTITLE11=KOJI 1200/WINE RED ワインレッドの心
TTITLE12=憂歌団/渚のボード・ウォーク
EXTD=
EXTT0=
EXTT1=
EXTT2=
EXTT3=
EXTT4=
EXTT5=
EXTT6=
EXTT7=
EXTT8=
EXTT9=
EXTT10=
EXTT11=
EXTT12=
PLAYORDER=
